<svg id="Layer_1" data-name="Layer 1" xmlns="http://www.w3.org/2000/svg" viewBox="0 0 1024 1024"><title>pwa</title><path d="M71.52,199.92l434.75-155L952.48,197.23,880.36,772.18,506.27,979.1l-368-204.23Z" style="fill:#ea906c"/><path d="M952.48,197.23L506.27,44.9V979.1L880.36,772.18l72.12-574.95h0Z" style="fill:#f16624"/><path d="M204.67,620.59V413.89h85.5c48.6,0,70.8,34.5,70.8,69,0,34.8-22.2,68.7-70.8,68.7h-35.4v69h-50.1Zm50.1-162.9v50.7h33c16.5,0,22.5-13.2,22.5-25.5s-6-25.2-22.5-25.2h-33Z" style="fill:#fff"/><path d="M549.36,531.49l36-117.6H640l-70.2,206.7h-38.7L505,520.09l-25.2,100.5h-39l-69.6-206.7h54.3l35.7,117.6,23.4-87.9h41.7Z" style="fill:#fff"/><path d="M768.07,573.19H703l-17.4,47.4h-53.7l76.2-206.7h54.6l75.9,206.7h-53.1ZM716.46,530h38.7l-20.1-68.1Z" style="fill:#fff"/></svg>